<svg width="18" height="20" viewBox="0 0 18 20" fill="none" xmlns="http://www.w3.org/2000/svg">
<path d="M7.50077 19.1667C7.50077 19.3877 7.42175 19.5996 7.28108 19.7559C7.14041 19.9122 6.94963 20 6.75069 20H1.50015C1.10229 20 0.720719 19.8244 0.439385 19.5118C0.158051 19.1993 0 18.7754 0 18.3333V1.66667C0 1.22464 0.158051 0.800716 0.439385 0.488155C0.720719 0.175595 1.10229 0 1.50015 0H6.75069C6.94963 0 7.14041 0.0877975 7.28108 0.244078C7.42175 0.400358 7.50077 0.61232 7.50077 0.833333C7.50077 1.05435 7.42175 1.26631 7.28108 1.42259C7.14041 1.57887 6.94963 1.66667 6.75069 1.66667H1.50015V18.3333H6.75069C6.94963 18.3333 7.14041 18.4211 7.28108 18.5774C7.42175 18.7337 7.50077 18.9457 7.50077 19.1667ZM17.7825 9.41042L14.0321 5.24375C13.8913 5.08738 13.7004 4.99954 13.5014 4.99954C13.3023 4.99954 13.1115 5.08738 12.9707 5.24375C12.83 5.40012 12.7509 5.6122 12.7509 5.83333C12.7509 6.05447 12.83 6.26655 12.9707 6.42292L15.4413 9.16667H6.75069C6.55176 9.16667 6.36098 9.25446 6.22031 9.41074C6.07964 9.56702 6.00062 9.77899 6.00062 10C6.00062 10.221 6.07964 10.433 6.22031 10.5893C6.36098 10.7455 6.55176 10.8333 6.75069 10.8333H15.4413L12.9707 13.5771C12.83 13.7334 12.7509 13.9455 12.7509 14.1667C12.7509 14.3878 12.83 14.5999 12.9707 14.7563C13.1115 14.9126 13.3023 15.0005 13.5014 15.0005C13.7004 15.0005 13.8913 14.9126 14.0321 14.7563L17.7825 10.5896C17.8522 10.5122 17.9075 10.4203 17.9453 10.3191C17.983 10.218 18.0024 10.1095 18.0024 10C18.0024 9.89049 17.983 9.78205 17.9453 9.68088C17.9075 9.57972 17.8522 9.48781 17.7825 9.41042Z" fill="#EF5F5F"/>
</svg>
