<svg width="46" height="36" viewBox="0 0 46 36" fill="none" xmlns="http://www.w3.org/2000/svg">
<path d="M4.5375 35.5C3.3875 35.5 2.4275 35.115 1.6575 34.345C0.885833 33.5733 0.5 32.6125 0.5 31.4625V4.5375C0.5 3.3875 0.885833 2.4275 1.6575 1.6575C2.4275 0.885833 3.3875 0.5 4.5375 0.5H16.99L21.99 5.5H41.4625C42.6125 5.5 43.5725 5.88583 44.3425 6.6575C45.1142 7.4275 45.5 8.3875 45.5 9.5375V31.4625C45.5 32.6125 45.115 33.5725 44.345 34.3425C43.5733 35.1142 42.6125 35.5 41.4625 35.5H4.5375ZM4.5375 33H41.4625C41.9108 33 42.2792 32.8558 42.5675 32.5675C42.8558 32.2792 43 31.9108 43 31.4625V9.5375C43 9.08917 42.8558 8.72083 42.5675 8.4325C42.2792 8.14417 41.9108 8 41.4625 8H20.9875L15.9875 3H4.5375C4.08917 3 3.72083 3.14417 3.4325 3.4325C3.14417 3.72083 3 4.08917 3 4.5375V31.4625C3 31.9108 3.14417 32.2792 3.4325 32.5675C3.72083 32.8558 4.08917 33 4.5375 33Z" fill="#4E4E4E"/>
</svg>
